# Blender v2.69 (sub 0) OBJ File: 'house.blend'
# www.blender.org
v 5.000000 0.000002 -5.000000
v 5.000000 0.000002 5.000000
v -5.000000 0.000002 4.999999
v -4.999998 0.000002 -5.000002
v 5.000002 10.023782 -4.999997
v 4.999997 10.023782 5.000003
v -5.000002 10.023782 4.999998
v -5.000000 10.023782 -5.000000
v 0.000001 0.000002 -5.000000
v -0.000000 0.000002 5.000000
v 0.000001 13.122292 -4.999999
v -0.000003 13.122292 5.000000
vt 0.456317 0.310280
vt 0.274869 0.301313
vt 0.423520 0.234976
vt 0.485563 0.842917
vt 0.485563 0.999916
vt 0.218659 0.842917
vt 0.485564 0.418378
vt 0.485563 0.685917
vt 0.218659 0.418378
vt 0.068716 0.007748
vt 0.332315 0.222424
vt 0.259554 0.000084
vt 0.689836 0.135990
vt 0.218659 0.685917
vt 0.000084 0.186580
vt 0.701428 0.284048
vt 0.218659 0.999916
vt 0.549335 0.085864
vn 0.000000 -1.000000 0.000000
vn -0.526757 0.850016 0.000000
vn 1.000000 -0.000000 0.000000
vn 0.000000 -0.000000 1.000000
vn -1.000000 -0.000000 -0.000000
vn 0.000000 0.000000 -1.000000
vn 0.526757 0.850016 0.000000
vn -0.000001 -0.000000 1.000000
vn 1.000000 0.000000 0.000001
s off
f 9/1/1 10/2/1 4/3/1
f 11/4/2 8/5/2 12/6/2
f 1/7/3 5/8/3 2/9/3
f 10/2/4 12/10/4 3/11/4
f 3/11/5 7/12/5 4/3/5
f 11/13/6 9/1/6 4/3/6
f 1/7/1 2/9/1 9/1/1
f 5/8/7 11/4/7 6/14/7
f 2/9/8 6/15/8 12/10/8
f 5/16/6 1/7/6 11/13/6
f 10/2/1 3/11/1 4/3/1
f 8/5/2 7/17/2 12/6/2
f 5/8/9 6/14/9 2/9/9
f 12/10/8 7/12/8 3/11/8
f 7/12/5 8/18/5 4/3/5
f 8/18/6 11/13/6 4/3/6
f 2/9/1 10/2/1 9/1/1
f 11/4/7 12/6/7 6/14/7
f 10/2/4 2/9/4 12/10/4
f 1/7/6 9/1/6 11/13/6
